solid OpenSCAD_Model
 facet normal 0 0 -100
  outer loop
   vertex -5 -5 -5
   vertex -5 5 -5
   vertex 5 5 -5
  endloop
 endfacet
 facet normal 0 -0 -100
  outer loop
   vertex 5 5 -5
   vertex 5 -5 -5
   vertex -5 -5 -5
  endloop
 endfacet
 facet normal 0 0 100
  outer loop
   vertex 5 5 5
   vertex -5 5 5
   vertex -5 -5 5
  endloop
 endfacet
 facet normal 0 0 100
  outer loop
   vertex -5 -5 5
   vertex 5 -5 5
   vertex 5 5 5
  endloop
 endfacet
 facet normal 0 100 0
  outer loop
   vertex -5 5 -5
   vertex -5 5 5
   vertex 5 5 5
  endloop
 endfacet
 facet normal 0 100 0
  outer loop
   vertex 5 5 5
   vertex 5 5 -5
   vertex -5 5 -5
  endloop
 endfacet
 facet normal 0 -100 0
  outer loop
   vertex -5 -5 -5
   vertex 5 -5 -5
   vertex 5 -5 5
  endloop
 endfacet
 facet normal -0 -100 0
  outer loop
   vertex 5 -5 5
   vertex -5 -5 5
   vertex -5 -5 -5
  endloop
 endfacet
 facet normal 100 0 -0
  outer loop
   vertex 5 5 -5
   vertex 5 5 5
   vertex 5 -5 5
  endloop
 endfacet
 facet normal 100 0 0
  outer loop
   vertex 5 -5 5
   vertex 5 -5 -5
   vertex 5 5 -5
  endloop
 endfacet
 facet normal -100 0 0
  outer loop
   vertex -5 5 -5
   vertex -5 -5 -5
   vertex -5 -5 5
  endloop
 endfacet
 facet normal -100 0 0
  outer loop
   vertex -5 -5 5
   vertex -5 5 5
   vertex -5 5 -5
  endloop
 endfacet
 facet normal 0 0 -100
  outer loop
   vertex 15 15 15
   vertex 15 25 15
   vertex 25 25 15
  endloop
 endfacet
 facet normal 0 -0 -100
  outer loop
   vertex 25 25 15
   vertex 25 15 15
   vertex 15 15 15
  endloop
 endfacet
 facet normal 0 0 100
  outer loop
   vertex 25 25 25
   vertex 15 25 25
   vertex 15 15 25
  endloop
 endfacet
 facet normal 0 0 100
  outer loop
   vertex 15 15 25
   vertex 25 15 25
   vertex 25 25 25
  endloop
 endfacet
 facet normal 0 100 0
  outer loop
   vertex 15 25 15
   vertex 15 25 25
   vertex 25 25 25
  endloop
 endfacet
 facet normal 0 100 0
  outer loop
   vertex 25 25 25
   vertex 25 25 15
   vertex 15 25 15
  endloop
 endfacet
 facet normal 0 -100 0
  outer loop
   vertex 15 15 15
   vertex 25 15 15
   vertex 25 15 25
  endloop
 endfacet
 facet normal -0 -100 0
  outer loop
   vertex 25 15 25
   vertex 15 15 25
   vertex 15 15 15
  endloop
 endfacet
 facet normal 100 0 -0
  outer loop
   vertex 25 25 15
   vertex 25 25 25
   vertex 25 15 25
  endloop
 endfacet
 facet normal 100 0 0
  outer loop
   vertex 25 15 25
   vertex 25 15 15
   vertex 25 25 15
  endloop
 endfacet
 facet normal -100 0 0
  outer loop
   vertex 15 25 15
   vertex 15 15 15
   vertex 15 15 25
  endloop
 endfacet
 facet normal -100 0 0
  outer loop
   vertex 15 15 25
   vertex 15 25 25
   vertex 15 25 15
  endloop
 endfacet
endsolid OpenSCAD_Model
